<svg xmlns="http://www.w3.org/2000/svg" version="1.1" xmlns:xlink="http://www.w3.org/1999/xlink" xmlns:svgjs="http://svgjs.com/svgjs" width="1440" height="560" preserveAspectRatio="none" viewBox="0 0 1440 560"><g mask="url(&quot;#SvgjsMask1313&quot;)" fill="none"><rect width="1440" height="560" x="0" y="0" fill="#0e2a47"></rect><path d="M 0,93 C 96,115.4 288,197.8 480,205 C 672,212.2 768,116.8 960,129 C 1152,141.2 1344,238.6 1440,266L1440 560L0 560z" fill="rgba(17, 61, 121, 1)"></path><path d="M 0,477 C 57.6,456.2 172.8,360.4 288,373 C 403.2,385.6 460.8,540.2 576,540 C 691.2,539.8 748.8,368 864,372 C 979.2,376 1036.8,559.4 1152,560 C 1267.2,560.6 1382.4,412 1440,375L1440 560L0 560z" fill="rgba(166, 11, 144, 1)"></path></g><defs><mask id="SvgjsMask1313"><rect width="1440" height="560" fill="#ffffff"></rect></mask></defs></svg>